<svg class="logo" xmlns="http://www.w3.org/2000/svg" width="113" height="24"><path class="logo-text" d="M36.46 18.215c0 3.787 2.637 5.618 5.925 5.618 1.106 0 1.912-.1 2.57-.302a.18.18 0 0 0 .128-.173v-3.37a.18.18 0 0 0-.231-.172c-.438.134-.927.2-1.506.2-1.83 0-2.637-.926-2.637-2.82V11.5a.18.18 0 0 1 .18-.18h3.195a.18.18 0 0 0 .15-.081l2.4-3.364a.18.18 0 0 0-.15-.28H40.9a.18.18 0 0 1-.18-.18V2.9a.18.18 0 0 0-.18-.18h-3.9a.18.18 0 0 0-.18.18v15.305zM17.574 7.798v15.487a.18.18 0 0 1-.18.18h-3.9a.18.18 0 0 1-.18-.18V11.45a.18.18 0 0 0-.18-.18H9.18a.18.18 0 0 1-.18-.18V7.8a.18.18 0 0 1 .18-.18h8.213a.18.18 0 0 1 .18.18m10.998-.193c-2.016 0-3.63.87-4.436 2.1v-1.92a.18.18 0 0 0-.18-.18h-3.9a.18.18 0 0 0-.18.18v15.487a.18.18 0 0 0 .18.18h3.9a.18.18 0 0 0 .18-.18v-7.393c0-2.98 1.5-4.408 3.443-4.408 1.768 0 2.73 1.366 2.73 3.6v8.2a.18.18 0 0 0 .18.18h3.9a.18.18 0 0 0 .18-.18V14.37c0-4.035-2.234-6.767-5.987-6.767m22.01 6.303c-.122 0-.207-.12-.172-.236.47-1.576 1.797-2.62 3.66-2.62 1.4 0 2.917.717 3.5 2.62.036.117-.05.237-.172.237H50.58zm3.6-6.3c-4.715 0-8.158 3.445-8.158 8.07 0 4.718 3.38 8.132 8.127 8.132 3.84 0 6.855-2.153 7.866-5.165a.18.18 0 0 0-.172-.235h-4.08a.18.18 0 0 0-.159.098c-.53.998-1.797 1.6-3.24 1.6-2.538 0-3.898-1.467-4.162-3.2a.18.18 0 0 1 .179-.204H62.1c.098 0 .18-.08.182-.177.135-5.724-3.588-8.918-8.1-8.918zm14.207 2.308V7.798a.18.18 0 0 0-.18-.18h-3.9a.18.18 0 0 0-.18.18v15.487a.18.18 0 0 0 .18.18h3.9a.18.18 0 0 0 .18-.18v-7.238c0-2.545 1.334-4.128 3.35-4.128.6 0 1.13.096 1.692.268a.18.18 0 0 0 .231-.173V7.93a.18.18 0 0 0-.134-.175c-.473-.123-.896-.15-1.293-.15-1.737 0-3.32.787-3.846 2.3m15.808-2.3c-2.016 0-3.63.87-4.436 2.1V7.798a.18.18 0 0 0-.18-.18H75.7a.18.18 0 0 0-.18.18v15.487a.18.18 0 0 0 .18.18h3.9a.18.18 0 0 0 .18-.18v-7.393c0-2.98 1.5-4.408 3.443-4.408 1.768 0 2.73 1.366 2.73 3.6v8.2a.18.18 0 0 0 .18.18h3.9a.18.18 0 0 0 .18-.18V14.37c0-4.035-2.234-6.767-5.987-6.767m24.4-7.42v23.1a.18.18 0 0 0 .18.18h3.9a.18.18 0 0 0 .18-.18V.186a.18.18 0 0 0-.18-.18h-3.9a.18.18 0 0 0-.18.18M15.434 5.4c-1.458 0-2.7-1.2-2.7-2.7s1.24-2.7 2.7-2.7c1.52 0 2.73 1.2 2.73 2.7s-1.2 2.7-2.73 2.7m87.14 11.98l.003-1.387c-.957.627-2.192.87-3.695 1.14s-2.46.624-2.462 1.745c-.002.957.707 1.505 2.373 1.508 2.24.004 3.777-1.257 3.78-3.007m-10.523 1.8c0-3.457 3.124-4.07 6.008-4.66 3.003-.614 4.34-.872 4.34-2.164 0-1.112-1.24-1.623-2.696-1.623-1.534 0-2.564.562-2.957 1.766-.025.075-.093.128-.172.128h-3.586a.18.18 0 0 1-.178-.213c.537-2.75 2.982-4.807 7.112-4.807 5.017 0 6.76 2.375 6.76 5.4v10.282a.18.18 0 0 1-.18.179h-3.62a.18.18 0 0 1-.18-.18v-1.87c-.9 1.563-2.448 2.38-5.06 2.38-2.824 0-5.588-1.323-5.588-4.63" fill="white"></path><path class="logo-shape" fill="#a560eb" d="M6.812 24H.188C.084 24 0 23.916 0 23.812v-6.623C0 17.084.084 17 .188 17h6.624c.104 0 .188.084.188.188v6.624c0 .104-.084.188-.188.188"></path></svg>